<?xml version="1.0" encoding="UTF-8"?>
<svg width="720px" height="86px" viewBox="0 0 720 86" version="1.1" xmlns="http://www.w3.org/2000/svg" xmlns:xlink="http://www.w3.org/1999/xlink">
    <!-- Generator: Sketch 40.2 (33826) - http://www.bohemiancoding.com/sketch -->
    <title>badge compact</title>
    <desc>Created with Sketch.</desc>
    <defs>
        <linearGradient x1="50%" y1="0%" x2="50%" y2="98.6029177%" id="linearGradient-1">
            <stop stop-color="#FF6633" offset="0%"></stop>
            <stop stop-color="#FF0E83" offset="100%"></stop>
        </linearGradient>
    </defs>
    <g id="Page-1" stroke="none" stroke-width="1" fill="none" fill-rule="evenodd">
        <g id="Mark-with-Circle-Shape-+-Logotype-Copy-2" transform="translate(-272.000000, -1642.000000)">
            <g id="badge-compact" transform="translate(234.000000, 1630.000000)">
                <g id="logo" transform="translate(383.632094, 12.063291)">
                    <g id="MXM-LOGO-Copy-+-musixmatch-Copy">
                        <g id="Oval-1-+-MXM-LOGO-Copy-2">
                            <ellipse id="Oval-1" fill="url(#linearGradient-1)" cx="42.5740282" cy="42.9367089" rx="42.5740282" ry="42.9367089"></ellipse>
                            <g id="MXM-LOGO" transform="translate(19.814328, 21.602622)" fill="#FFFFFF">
                                <path d="M37.990312,1.12495562 L22.8012494,12.6131742 C22.7576486,12.6461516 22.6704469,12.7121065 22.6704469,12.7121065 L7.20723228,1.22567669 C6.35487644,0.577404456 5.36279175,0.286155876 4.39280553,0.286060133 C2.13924985,0.285772906 0.00322676867,1.85719399 0.00322676867,4.17377869 L0.00322676867,12.8847154 L0,38.7796056 C0,41.0959988 2.13621864,42.6674199 4.38957876,42.6674199 C5.35976054,42.6674199 6.35155189,42.3761713 7.20400551,41.7277076 L22.6704469,30.1406525 C30.3661924,35.9941075 37.9870853,41.7277076 37.9870853,41.7277076 C38.8394411,42.3759799 39.8316236,42.6674199 40.801512,42.6674199 C43.0551655,42.6674199 45.3408937,41.0961914 45.3408937,38.7796067 L45.3408937,12.8847151 L45.3408937,3.9978335 C45.3408937,1.68144028 43.0580989,0.185339059 40.8047388,0.185339059 C39.834557,0.185339059 38.8427657,0.476587639 37.990312,1.12495562 Z" id="Imported-Layers" fill-opacity="0.699999988"></path>
                                <polygon id="Fill-3-Copy" fill-opacity="0.599999964" points="11.3222656 21.4433445 22.6704467 30.1406529 33.9460962 21.4409793 22.6704467 12.7121065"></polygon>
                                <polyline id="Fill-4-Copy" fill-opacity="0.599999964" points="0.00550900901 12.8537884 0.00550900901 30.0329822 11.3222656 21.4433445 0.00550900901 12.8537884"></polyline>
                                <polyline id="Fill-5-Copy" fill-opacity="0.599999964" points="33.9460962 21.4409793 45.3408936 30.1406526 45.3408936 12.7121065 33.9460962 21.4409793"></polyline>
                                <path d="M37.7840781,1.27462317 L22.6704469,12.7121069 L33.9460962,21.4408978 L45.3408937,12.7121069 L45.3408937,3.99783351 C45.3408937,0.686485329 41.0227133,-1.44858711 37.7840781,1.27462317 Z" id="Fill-6-Copy"></path>
                                <path d="M7.22272816,1.15751389 C4.38625628,-0.99546188 0.00868086268,0.792295862 0.00868086268,4.10364404 L0.00868086268,12.8537884 L11.3222656,21.4433445 L22.6704479,12.7121061 L7.22272816,1.15751389 Z" id="Fill-7-Copy"></path>
                            </g>
                        </g>
                    </g>
                    <path d="M116.992684,41.5304284 L116.992684,55.6761719 L122.543792,55.6761719 L122.543792,41.5995444 C122.543792,37.7981639 124.599758,35.2408715 128.049211,35.2408715 C131.887015,35.2408715 133.394723,37.8903185 133.394723,41.4613124 L133.394723,55.6761719 L138.968675,55.6761719 L138.968675,40.1250696 C138.968675,34.4114793 136.204543,29.9189387 129.853893,29.9189387 C126.038934,29.9189387 123.594619,31.3473362 121.173148,34.0428606 C119.756816,31.5316456 117.266813,29.9189387 113.474698,29.9189387 C111.487264,29.9189387 108.403315,30.6561761 106.004688,33.8815899 L106.004688,30.4949054 L100.567801,30.4949054 L100.567801,55.6761719 L106.141753,55.6761719 L106.141753,41.6456218 C106.141753,37.8442412 108.197718,35.2408715 111.647172,35.2408715 C115.484975,35.2408715 116.992684,37.9594346 116.992684,41.5304284 L116.992684,41.5304284 Z M150.037995,44.5945716 L150.037995,30.4949054 L144.464043,30.4949054 L144.464043,45.9768918 C144.464043,51.690482 147.570836,56.2060613 153.83011,56.2060613 C155.7947,56.2060613 159.061401,55.5379399 161.460028,52.2894874 L161.460028,55.6761719 L166.896916,55.6761719 L166.896916,30.4949054 L161.322964,30.4949054 L161.322964,44.5024169 C161.322964,48.3037975 159.084245,50.8841285 155.543415,50.8841285 C151.705612,50.8841285 150.037995,48.1655654 150.037995,44.5945716 L150.037995,44.5945716 Z M181.095873,56.1139067 C187.309459,56.1139067 190.210655,52.1512554 190.210655,48.2577201 C190.210655,44.6636876 187.697808,41.6686605 183.128995,40.6779976 L179.702385,39.9407602 C178.308897,39.6412575 177.189538,38.8118653 177.189538,37.3373905 C177.189538,35.6325289 178.857155,34.4805954 180.616148,34.4805954 C183.563032,34.4805954 184.773768,36.3697663 185.139273,38.0055119 L189.84515,36.669269 C189.411113,34.2502087 187.172395,29.9419773 180.616148,29.9419773 C175.521921,29.9419773 171.798338,33.6512032 171.798338,37.8212025 C171.798338,41.1157324 173.854304,43.9725275 178.400273,45.055345 L181.598443,45.8156211 C183.700097,46.3224718 184.568171,47.22098 184.568171,48.5802615 C184.568171,50.3312004 183.311747,51.5292113 181.004497,51.5292113 C178.148989,51.5292113 176.458528,49.663079 176.001646,47.5204827 L171.227237,48.7876095 C171.547054,51.5983273 174.311186,56.1139067 181.095873,56.1139067 L181.095873,56.1139067 Z M193.83281,22.3161775 C193.83281,20.2657358 195.477583,18.5839129 197.487861,18.5839129 C199.520983,18.5839129 201.165755,20.2657358 201.165755,22.3161775 C201.165755,24.3666191 199.520983,26.0023647 197.487861,26.0023647 C195.477583,26.0023647 193.83281,24.3666191 193.83281,22.3161775 L193.83281,22.3161775 Z M194.723729,55.6761719 L194.723729,30.4949054 L200.297681,30.4949054 L200.297681,55.6761719 L194.723729,55.6761719 Z M209.630852,55.6761719 L215.91297,46.8984386 L222.217932,55.6761719 L228.614271,55.6761719 L219.156828,42.8436326 L228.317298,30.4949054 L222.03518,30.4949054 L215.981503,38.834904 L209.996357,30.4949054 L203.622863,30.4949054 L212.760489,42.9357873 L203.280202,55.6761719 L209.630852,55.6761719 Z M248.044519,41.5304284 L248.044519,55.6761719 L253.595627,55.6761719 L253.595627,41.5995444 C253.595627,37.7981639 255.651593,35.2408715 259.101047,35.2408715 C262.93885,35.2408715 264.446558,37.8903185 264.446558,41.4613124 L264.446558,55.6761719 L270.02051,55.6761719 L270.02051,40.1250696 C270.02051,34.4114793 267.256378,29.9189387 260.905728,29.9189387 C257.090769,29.9189387 254.646454,31.3473362 252.224983,34.0428606 C250.808651,31.5316456 248.318648,29.9189387 244.526533,29.9189387 C242.539099,29.9189387 239.455151,30.6561761 237.056524,33.8815899 L237.056524,30.4949054 L231.619636,30.4949054 L231.619636,55.6761719 L237.193588,55.6761719 L237.193588,41.6456218 C237.193588,37.8442412 239.249554,35.2408715 242.699008,35.2408715 C246.536811,35.2408715 248.044519,37.9594346 248.044519,41.5304284 L248.044519,41.5304284 Z M274.099547,43.0509807 C274.099547,49.8243497 279.170929,56.0678293 286.389654,56.0678293 C288.377088,56.0678293 292.626084,55.0771665 294.68205,51.8517527 L294.68205,55.6761719 L300.18747,55.6761719 L300.18747,30.4949054 L294.68205,30.4949054 L294.68205,34.158054 C292.626084,31.0478335 288.719749,29.9880547 286.526718,29.9880547 C278.714048,29.9880547 274.099547,36.6923077 274.099547,43.0509807 L274.099547,43.0509807 Z M294.704894,43.0509807 C294.704894,47.359212 291.735165,50.9762832 287.21204,50.9762832 C282.711759,50.9762832 279.719187,47.3822507 279.719187,43.0509807 C279.719187,38.6736333 282.688915,35.0796008 287.21204,35.0796008 C291.735165,35.0796008 294.704894,38.6736333 294.704894,43.0509807 L294.704894,43.0509807 Z M320.348728,35.5403742 L320.348728,30.4949054 L313.998078,30.4949054 L313.998078,22.6847962 L308.44697,22.6847962 L308.44697,30.4949054 L303.604028,30.4949054 L303.604028,35.5403742 L308.44697,35.5403742 L308.44697,47.8660627 C308.44697,53.994349 311.211102,55.9065586 316.122576,55.9065586 C316.807898,55.9065586 318.589735,55.8604813 320.120287,55.3997079 L320.120287,50.6307032 C319.046616,50.7689352 318.361294,50.8150125 317.858725,50.8150125 C315.071749,50.8150125 313.998078,49.732195 313.998078,47.56656 L313.998078,35.5403742 L320.348728,35.5403742 Z M335.667045,56.1139067 C342.474576,56.1139067 346.335223,51.690482 347.454583,47.8660627 L342.360356,46.2072785 C341.629346,48.1425268 340.053105,50.9993219 335.781265,50.9993219 C331.532269,50.9993219 328.379788,47.635676 328.379788,42.9357873 C328.379788,38.1667826 331.669333,35.0565621 335.735577,35.0565621 C339.870353,35.0565621 341.697878,37.7981639 342.26898,39.7564508 L347.317518,38.0976666 C346.266691,33.8355126 341.949163,29.965016 335.758421,29.965016 C328.311256,29.965016 322.668771,35.8398769 322.668771,43.027942 C322.668771,50.4463938 328.311256,56.1139067 335.667045,56.1139067 L335.667045,56.1139067 Z M368.301163,41.5765058 L368.301163,55.6761719 L373.875115,55.6761719 L373.875115,40.1711469 C373.875115,34.434518 370.859698,29.965016 364.509048,29.965016 C362.544459,29.965016 359.414822,30.6100988 357.016195,33.6742419 L357.016195,17.2476701 L351.442243,17.2476701 L351.442243,55.6761719 L357.016195,55.6761719 L357.016195,41.6456218 C357.016195,37.8442412 359.254913,35.2869488 362.795743,35.2869488 C366.633546,35.2869488 368.301163,37.9824732 368.301163,41.5765058 L368.301163,41.5765058 Z" id="musixmatch" fill="#FFFFFF"></path>
                </g>
                <text id="Lyrics-powered-by" font-family="GorditaMedium, Gordita" font-size="35.1000005" font-weight="400" fill="#FFFFFF">
                    <tspan x="35.0686567" y="67.6190476">Lyrics powered by</tspan>
                </text>
                <rect id="bg" x="0" y="0" width="794" height="122"></rect>
            </g>
        </g>
    </g>
</svg>